<mxfile host="app.diagrams.net" modified="2022-09-01T04:02:29.408Z" agent="5.0 (Macintosh; Intel Mac OS X 10_15_7) AppleWebKit/537.36 (KHTML, like Gecko) Chrome/104.0.0.0 Safari/537.36" etag="mniQCoFVLJVoat81RuGi" version="20.2.3" type="github">
  <diagram id="dzDGJaT0LqkKtjmnmPE_" name="Page-1">
    <mxGraphModel dx="2125" dy="773" grid="1" gridSize="10" guides="1" tooltips="1" connect="1" arrows="1" fold="1" page="1" pageScale="1" pageWidth="827" pageHeight="1169" math="0" shadow="0">
      <root>
        <mxCell id="0" />
        <mxCell id="1" parent="0" />
        <mxCell id="bD3E9LJAJzrm63IDOAJ8-2" value="方向问题：dlc在tbds的定位： 兼容hdfs及跨云 对象存储/云原生 的统一湖仓一体产品？" style="text;html=1;strokeColor=none;fillColor=none;align=center;verticalAlign=middle;whiteSpace=wrap;rounded=0;fontSize=24;" vertex="1" parent="1">
          <mxGeometry x="210" y="70" width="510" height="30" as="geometry" />
        </mxCell>
        <mxCell id="bD3E9LJAJzrm63IDOAJ8-3" value="tbds-hdfs" style="rounded=0;whiteSpace=wrap;html=1;" vertex="1" parent="1">
          <mxGeometry x="80" y="450" width="120" height="60" as="geometry" />
        </mxCell>
        <mxCell id="bD3E9LJAJzrm63IDOAJ8-4" value="cos" style="rounded=0;whiteSpace=wrap;html=1;" vertex="1" parent="1">
          <mxGeometry x="220" y="450" width="120" height="60" as="geometry" />
        </mxCell>
        <mxCell id="bD3E9LJAJzrm63IDOAJ8-5" value="s3" style="rounded=0;whiteSpace=wrap;html=1;" vertex="1" parent="1">
          <mxGeometry x="360" y="450" width="120" height="60" as="geometry" />
        </mxCell>
        <mxCell id="bD3E9LJAJzrm63IDOAJ8-6" value="统一存储抽象" style="rounded=0;whiteSpace=wrap;html=1;" vertex="1" parent="1">
          <mxGeometry x="80" y="410" width="400" height="30" as="geometry" />
        </mxCell>
        <mxCell id="bD3E9LJAJzrm63IDOAJ8-7" value="统一资源调度" style="rounded=0;whiteSpace=wrap;html=1;" vertex="1" parent="1">
          <mxGeometry x="550" y="410" width="400" height="30" as="geometry" />
        </mxCell>
        <mxCell id="bD3E9LJAJzrm63IDOAJ8-8" value="峰峦" style="rounded=0;whiteSpace=wrap;html=1;" vertex="1" parent="1">
          <mxGeometry x="550" y="450" width="120" height="60" as="geometry" />
        </mxCell>
        <mxCell id="bD3E9LJAJzrm63IDOAJ8-9" value="yarn" style="rounded=0;whiteSpace=wrap;html=1;" vertex="1" parent="1">
          <mxGeometry x="690" y="450" width="120" height="60" as="geometry" />
        </mxCell>
        <mxCell id="bD3E9LJAJzrm63IDOAJ8-10" value="各云厂商容器服务？" style="rounded=0;whiteSpace=wrap;html=1;" vertex="1" parent="1">
          <mxGeometry x="830" y="450" width="120" height="60" as="geometry" />
        </mxCell>
        <mxCell id="bD3E9LJAJzrm63IDOAJ8-14" value="统一元数据" style="rounded=0;whiteSpace=wrap;html=1;" vertex="1" parent="1">
          <mxGeometry x="-80" y="310" width="120" height="60" as="geometry" />
        </mxCell>
        <mxCell id="bD3E9LJAJzrm63IDOAJ8-15" value="统一安全" style="rounded=0;whiteSpace=wrap;html=1;" vertex="1" parent="1">
          <mxGeometry x="-80" y="390" width="120" height="60" as="geometry" />
        </mxCell>
        <mxCell id="bD3E9LJAJzrm63IDOAJ8-16" value="统一语法" style="rounded=0;whiteSpace=wrap;html=1;" vertex="1" parent="1">
          <mxGeometry x="-80" y="230" width="120" height="60" as="geometry" />
        </mxCell>
        <mxCell id="bD3E9LJAJzrm63IDOAJ8-84" value="" style="rounded=0;whiteSpace=wrap;html=1;fontColor=#000000;fillColor=#FFFFCC;" vertex="1" parent="1">
          <mxGeometry x="-140" y="720" width="910" height="550" as="geometry" />
        </mxCell>
        <mxCell id="bD3E9LJAJzrm63IDOAJ8-85" value="" style="rounded=0;whiteSpace=wrap;html=1;fillColor=#EA6B66;" vertex="1" parent="1">
          <mxGeometry x="881" y="955" width="399" height="265" as="geometry" />
        </mxCell>
        <mxCell id="bD3E9LJAJzrm63IDOAJ8-86" value="" style="rounded=0;whiteSpace=wrap;html=1;fillColor=#E6D0DE;" vertex="1" parent="1">
          <mxGeometry x="881" y="760" width="240" height="170" as="geometry" />
        </mxCell>
        <mxCell id="bD3E9LJAJzrm63IDOAJ8-87" style="edgeStyle=orthogonalEdgeStyle;rounded=0;orthogonalLoop=1;jettySize=auto;html=1;entryX=0.5;entryY=0;entryDx=0;entryDy=0;" edge="1" parent="1" source="bD3E9LJAJzrm63IDOAJ8-89" target="bD3E9LJAJzrm63IDOAJ8-95">
          <mxGeometry relative="1" as="geometry">
            <Array as="points">
              <mxPoint x="180" y="660" />
              <mxPoint x="180" y="750" />
              <mxPoint x="330" y="750" />
            </Array>
          </mxGeometry>
        </mxCell>
        <mxCell id="bD3E9LJAJzrm63IDOAJ8-88" style="edgeStyle=orthogonalEdgeStyle;rounded=0;orthogonalLoop=1;jettySize=auto;html=1;" edge="1" parent="1" source="bD3E9LJAJzrm63IDOAJ8-89">
          <mxGeometry relative="1" as="geometry">
            <mxPoint x="-70" y="1330" as="targetPoint" />
          </mxGeometry>
        </mxCell>
        <mxCell id="bD3E9LJAJzrm63IDOAJ8-89" value="JDBC" style="rounded=1;whiteSpace=wrap;html=1;" vertex="1" parent="1">
          <mxGeometry x="-130" y="630" width="120" height="60" as="geometry" />
        </mxCell>
        <mxCell id="bD3E9LJAJzrm63IDOAJ8-90" style="edgeStyle=orthogonalEdgeStyle;rounded=0;orthogonalLoop=1;jettySize=auto;html=1;entryX=0.5;entryY=0;entryDx=0;entryDy=0;" edge="1" parent="1" source="bD3E9LJAJzrm63IDOAJ8-91" target="bD3E9LJAJzrm63IDOAJ8-95">
          <mxGeometry relative="1" as="geometry">
            <mxPoint x="40" y="750" as="targetPoint" />
          </mxGeometry>
        </mxCell>
        <mxCell id="bD3E9LJAJzrm63IDOAJ8-91" value="DLC前端" style="rounded=1;whiteSpace=wrap;html=1;" vertex="1" parent="1">
          <mxGeometry x="270" y="630" width="120" height="60" as="geometry" />
        </mxCell>
        <mxCell id="bD3E9LJAJzrm63IDOAJ8-92" style="edgeStyle=orthogonalEdgeStyle;rounded=0;orthogonalLoop=1;jettySize=auto;html=1;" edge="1" parent="1" source="bD3E9LJAJzrm63IDOAJ8-95" target="bD3E9LJAJzrm63IDOAJ8-106">
          <mxGeometry relative="1" as="geometry">
            <mxPoint x="330" y="980" as="targetPoint" />
          </mxGeometry>
        </mxCell>
        <mxCell id="bD3E9LJAJzrm63IDOAJ8-93" style="edgeStyle=orthogonalEdgeStyle;rounded=0;orthogonalLoop=1;jettySize=auto;html=1;strokeColor=#EA6B66;" edge="1" parent="1" source="bD3E9LJAJzrm63IDOAJ8-95" target="bD3E9LJAJzrm63IDOAJ8-109">
          <mxGeometry relative="1" as="geometry">
            <mxPoint x="60" y="1060" as="targetPoint" />
            <Array as="points">
              <mxPoint x="10" y="855" />
            </Array>
          </mxGeometry>
        </mxCell>
        <mxCell id="bD3E9LJAJzrm63IDOAJ8-94" style="edgeStyle=orthogonalEdgeStyle;rounded=0;orthogonalLoop=1;jettySize=auto;html=1;exitX=0;exitY=1;exitDx=0;exitDy=0;" edge="1" parent="1" source="bD3E9LJAJzrm63IDOAJ8-95" target="bD3E9LJAJzrm63IDOAJ8-113">
          <mxGeometry relative="1" as="geometry">
            <mxPoint x="150" y="980" as="targetPoint" />
            <Array as="points">
              <mxPoint x="210" y="920" />
              <mxPoint x="150" y="920" />
            </Array>
          </mxGeometry>
        </mxCell>
        <mxCell id="bD3E9LJAJzrm63IDOAJ8-95" value="&lt;br&gt;&lt;br&gt;&lt;br&gt;&lt;br&gt;&lt;br&gt;treehole" style="rounded=1;whiteSpace=wrap;html=1;" vertex="1" parent="1">
          <mxGeometry x="210" y="770" width="240" height="140" as="geometry" />
        </mxCell>
        <mxCell id="bD3E9LJAJzrm63IDOAJ8-96" value="cos服务" style="rounded=1;whiteSpace=wrap;html=1;" vertex="1" parent="1">
          <mxGeometry x="-140" y="1360" width="1260" height="100" as="geometry" />
        </mxCell>
        <mxCell id="bD3E9LJAJzrm63IDOAJ8-97" value="" style="endArrow=none;html=1;strokeWidth=4;" edge="1" parent="1" target="bD3E9LJAJzrm63IDOAJ8-98">
          <mxGeometry width="50" height="50" relative="1" as="geometry">
            <mxPoint x="-140" y="720" as="sourcePoint" />
            <mxPoint x="790" y="720" as="targetPoint" />
          </mxGeometry>
        </mxCell>
        <mxCell id="bD3E9LJAJzrm63IDOAJ8-98" value="api v3" style="rounded=1;whiteSpace=wrap;html=1;" vertex="1" parent="1">
          <mxGeometry x="770" y="690" width="120" height="60" as="geometry" />
        </mxCell>
        <mxCell id="bD3E9LJAJzrm63IDOAJ8-99" value="" style="rounded=1;whiteSpace=wrap;html=1;" vertex="1" parent="1">
          <mxGeometry x="901" y="985" width="170" height="215" as="geometry" />
        </mxCell>
        <mxCell id="bD3E9LJAJzrm63IDOAJ8-100" value="首次开通，初始化eks服务&lt;br&gt;并且注册到eos服务" style="text;html=1;strokeColor=none;fillColor=none;align=left;verticalAlign=middle;whiteSpace=wrap;rounded=0;" vertex="1" parent="1">
          <mxGeometry x="467" y="850" width="220" height="20" as="geometry" />
        </mxCell>
        <mxCell id="bD3E9LJAJzrm63IDOAJ8-101" style="edgeStyle=orthogonalEdgeStyle;rounded=0;orthogonalLoop=1;jettySize=auto;html=1;entryX=0;entryY=0.5;entryDx=0;entryDy=0;" edge="1" parent="1" source="bD3E9LJAJzrm63IDOAJ8-106" target="bD3E9LJAJzrm63IDOAJ8-85">
          <mxGeometry relative="1" as="geometry">
            <mxPoint x="860" y="1090" as="targetPoint" />
          </mxGeometry>
        </mxCell>
        <mxCell id="bD3E9LJAJzrm63IDOAJ8-102" style="edgeStyle=orthogonalEdgeStyle;rounded=0;orthogonalLoop=1;jettySize=auto;html=1;strokeColor=#EA6B66;" edge="1" parent="1" source="bD3E9LJAJzrm63IDOAJ8-106">
          <mxGeometry relative="1" as="geometry">
            <Array as="points">
              <mxPoint x="330" y="1190" />
              <mxPoint x="330" y="1190" />
            </Array>
            <mxPoint x="330" y="1220" as="targetPoint" />
          </mxGeometry>
        </mxCell>
        <mxCell id="bD3E9LJAJzrm63IDOAJ8-103" style="edgeStyle=orthogonalEdgeStyle;rounded=0;orthogonalLoop=1;jettySize=auto;html=1;entryX=0.5;entryY=1;entryDx=0;entryDy=0;" edge="1" parent="1" source="bD3E9LJAJzrm63IDOAJ8-106" target="bD3E9LJAJzrm63IDOAJ8-113">
          <mxGeometry relative="1" as="geometry">
            <Array as="points">
              <mxPoint x="300" y="1080" />
              <mxPoint x="150" y="1080" />
            </Array>
          </mxGeometry>
        </mxCell>
        <mxCell id="bD3E9LJAJzrm63IDOAJ8-104" style="edgeStyle=orthogonalEdgeStyle;rounded=0;orthogonalLoop=1;jettySize=auto;html=1;strokeColor=#0000FF;fontColor=#000000;" edge="1" parent="1" source="bD3E9LJAJzrm63IDOAJ8-106" target="bD3E9LJAJzrm63IDOAJ8-96">
          <mxGeometry relative="1" as="geometry">
            <Array as="points">
              <mxPoint x="350" y="1260" />
              <mxPoint x="350" y="1260" />
            </Array>
          </mxGeometry>
        </mxCell>
        <mxCell id="bD3E9LJAJzrm63IDOAJ8-105" style="edgeStyle=orthogonalEdgeStyle;rounded=0;orthogonalLoop=1;jettySize=auto;html=1;fontColor=#000000;strokeColor=#000000;" edge="1" parent="1" source="bD3E9LJAJzrm63IDOAJ8-106" target="bD3E9LJAJzrm63IDOAJ8-137">
          <mxGeometry relative="1" as="geometry">
            <Array as="points">
              <mxPoint x="400" y="1000" />
              <mxPoint x="400" y="1070" />
              <mxPoint x="585" y="1070" />
            </Array>
          </mxGeometry>
        </mxCell>
        <mxCell id="bD3E9LJAJzrm63IDOAJ8-106" value="supersql-cloud（计算）" style="rounded=1;whiteSpace=wrap;html=1;" vertex="1" parent="1">
          <mxGeometry x="240" y="930" width="180" height="110" as="geometry" />
        </mxCell>
        <mxCell id="bD3E9LJAJzrm63IDOAJ8-107" style="edgeStyle=orthogonalEdgeStyle;rounded=0;orthogonalLoop=1;jettySize=auto;html=1;entryX=0.5;entryY=1;entryDx=0;entryDy=0;strokeColor=#EA6B66;" edge="1" parent="1" source="bD3E9LJAJzrm63IDOAJ8-85" target="bD3E9LJAJzrm63IDOAJ8-109">
          <mxGeometry relative="1" as="geometry">
            <Array as="points">
              <mxPoint x="10" y="1220" />
            </Array>
            <mxPoint x="770" y="1050" as="sourcePoint" />
          </mxGeometry>
        </mxCell>
        <mxCell id="bD3E9LJAJzrm63IDOAJ8-108" style="edgeStyle=orthogonalEdgeStyle;rounded=0;orthogonalLoop=1;jettySize=auto;html=1;strokeColor=#EA6B66;" edge="1" parent="1" source="bD3E9LJAJzrm63IDOAJ8-109">
          <mxGeometry relative="1" as="geometry">
            <Array as="points">
              <mxPoint x="-50" y="760" />
              <mxPoint x="880" y="760" />
            </Array>
            <mxPoint x="880" y="760" as="targetPoint" />
          </mxGeometry>
        </mxCell>
        <mxCell id="bD3E9LJAJzrm63IDOAJ8-109" value="hybris （元数据）" style="rounded=1;whiteSpace=wrap;html=1;" vertex="1" parent="1">
          <mxGeometry x="-50" y="950" width="120" height="60" as="geometry" />
        </mxCell>
        <mxCell id="bD3E9LJAJzrm63IDOAJ8-110" value="元数据前端展示/联邦数据源实时获取" style="text;html=1;strokeColor=none;fillColor=none;align=center;verticalAlign=middle;whiteSpace=wrap;rounded=0;" vertex="1" parent="1">
          <mxGeometry x="-40" y="890" width="110" height="20" as="geometry" />
        </mxCell>
        <mxCell id="bD3E9LJAJzrm63IDOAJ8-111" value="大部分show 语法 eos直接查询hyrbis" style="text;html=1;strokeColor=none;fillColor=none;align=center;verticalAlign=middle;whiteSpace=wrap;rounded=0;" vertex="1" parent="1">
          <mxGeometry x="190" y="1160" width="150" height="20" as="geometry" />
        </mxCell>
        <mxCell id="bD3E9LJAJzrm63IDOAJ8-112" value="hms服务" style="text;html=1;strokeColor=none;fillColor=none;align=center;verticalAlign=middle;whiteSpace=wrap;rounded=0;" vertex="1" parent="1">
          <mxGeometry x="-40" y="1040" width="70" height="20" as="geometry" />
        </mxCell>
        <mxCell id="bD3E9LJAJzrm63IDOAJ8-113" value="ranger（安全）" style="rounded=1;whiteSpace=wrap;html=1;" vertex="1" parent="1">
          <mxGeometry x="90" y="950" width="120" height="60" as="geometry" />
        </mxCell>
        <mxCell id="bD3E9LJAJzrm63IDOAJ8-114" value="注册服务、配置权限" style="text;html=1;strokeColor=none;fillColor=none;align=center;verticalAlign=middle;whiteSpace=wrap;rounded=0;" vertex="1" parent="1">
          <mxGeometry x="90" y="900" width="110" height="20" as="geometry" />
        </mxCell>
        <mxCell id="bD3E9LJAJzrm63IDOAJ8-115" value="sql解析权限，远程鉴权" style="text;html=1;strokeColor=none;fillColor=none;align=center;verticalAlign=middle;whiteSpace=wrap;rounded=0;" vertex="1" parent="1">
          <mxGeometry x="160" y="1080" width="130" height="20" as="geometry" />
        </mxCell>
        <mxCell id="bD3E9LJAJzrm63IDOAJ8-116" value="1、ddl结果持久化&lt;br&gt;2、query结果异步获取" style="text;html=1;strokeColor=none;fillColor=none;align=left;verticalAlign=middle;whiteSpace=wrap;rounded=0;" vertex="1" parent="1">
          <mxGeometry x="350" y="1130" width="130" height="30" as="geometry" />
        </mxCell>
        <mxCell id="bD3E9LJAJzrm63IDOAJ8-117" value="cdb" style="rounded=1;whiteSpace=wrap;html=1;align=center;" vertex="1" parent="1">
          <mxGeometry x="921" y="810" width="70" height="100" as="geometry" />
        </mxCell>
        <mxCell id="bD3E9LJAJzrm63IDOAJ8-118" value="实时元数据/元数据采集" style="text;html=1;strokeColor=none;fillColor=none;align=left;verticalAlign=middle;whiteSpace=wrap;rounded=0;" vertex="1" parent="1">
          <mxGeometry x="500" y="765" width="130" height="20" as="geometry" />
        </mxCell>
        <mxCell id="bD3E9LJAJzrm63IDOAJ8-119" value="" style="endArrow=none;html=1;strokeWidth=4;entryX=-0.033;entryY=0.633;entryDx=0;entryDy=0;entryPerimeter=0;" edge="1" parent="1" target="bD3E9LJAJzrm63IDOAJ8-120">
          <mxGeometry width="50" height="50" relative="1" as="geometry">
            <mxPoint x="-130" y="1330" as="sourcePoint" />
            <mxPoint x="770" y="1330" as="targetPoint" />
            <Array as="points">
              <mxPoint x="330" y="1330" />
            </Array>
          </mxGeometry>
        </mxCell>
        <mxCell id="bD3E9LJAJzrm63IDOAJ8-120" value="api v3" style="rounded=1;whiteSpace=wrap;html=1;" vertex="1" parent="1">
          <mxGeometry x="1130" y="1290" width="120" height="60" as="geometry" />
        </mxCell>
        <mxCell id="bD3E9LJAJzrm63IDOAJ8-121" value="&lt;h1&gt;DLC 调用关系&lt;/h1&gt;&lt;p&gt;红色线 元数据流&lt;/p&gt;&lt;p&gt;蓝色线 数据流&lt;/p&gt;&lt;p&gt;黑色 请求控制流&lt;/p&gt;" style="text;html=1;strokeColor=none;fillColor=none;spacing=5;spacingTop=-20;whiteSpace=wrap;overflow=hidden;rounded=0;" vertex="1" parent="1">
          <mxGeometry x="911" y="600" width="190" height="130" as="geometry" />
        </mxCell>
        <mxCell id="bD3E9LJAJzrm63IDOAJ8-122" value="用户VPC" style="text;html=1;strokeColor=none;fillColor=none;align=center;verticalAlign=middle;whiteSpace=wrap;rounded=0;" vertex="1" parent="1">
          <mxGeometry x="1061" y="760" width="60" height="30" as="geometry" />
        </mxCell>
        <mxCell id="bD3E9LJAJzrm63IDOAJ8-123" value="emr" style="rounded=1;whiteSpace=wrap;html=1;align=center;" vertex="1" parent="1">
          <mxGeometry x="1001" y="810" width="70" height="100" as="geometry" />
        </mxCell>
        <mxCell id="bD3E9LJAJzrm63IDOAJ8-124" value="托管账号VPC" style="text;html=1;strokeColor=none;fillColor=none;align=center;verticalAlign=middle;whiteSpace=wrap;rounded=0;" vertex="1" parent="1">
          <mxGeometry x="1061" y="965" width="60" height="30" as="geometry" />
        </mxCell>
        <mxCell id="bD3E9LJAJzrm63IDOAJ8-125" value="EKS" style="text;html=1;strokeColor=none;fillColor=none;align=center;verticalAlign=middle;whiteSpace=wrap;rounded=0;" vertex="1" parent="1">
          <mxGeometry x="911" y="995" width="60" height="30" as="geometry" />
        </mxCell>
        <mxCell id="bD3E9LJAJzrm63IDOAJ8-126" value="共享presto集群：210版本、暂时禁止用户自定义udf、禁止alluxio local cache" style="rounded=1;whiteSpace=wrap;html=1;align=left;" vertex="1" parent="1">
          <mxGeometry x="941" y="1020" width="120" height="60" as="geometry" />
        </mxCell>
        <mxCell id="bD3E9LJAJzrm63IDOAJ8-127" value="cu presto/spark vm&lt;br&gt;用户购买弹性扩缩子集群数量&lt;br&gt;&lt;br&gt;alluxio local cache（presto now）&amp;nbsp;" style="rounded=1;whiteSpace=wrap;html=1;align=left;" vertex="1" parent="1">
          <mxGeometry x="941" y="1090" width="120" height="80" as="geometry" />
        </mxCell>
        <mxCell id="bD3E9LJAJzrm63IDOAJ8-128" value="" style="endArrow=classic;startArrow=classic;html=1;rounded=0;entryX=0.5;entryY=1;entryDx=0;entryDy=0;exitX=0.5;exitY=0;exitDx=0;exitDy=0;strokeColor=#0000FF;strokeWidth=3;" edge="1" parent="1" source="bD3E9LJAJzrm63IDOAJ8-126" target="bD3E9LJAJzrm63IDOAJ8-117">
          <mxGeometry width="50" height="50" relative="1" as="geometry">
            <mxPoint x="741" y="1100" as="sourcePoint" />
            <mxPoint x="791" y="1050" as="targetPoint" />
          </mxGeometry>
        </mxCell>
        <mxCell id="bD3E9LJAJzrm63IDOAJ8-129" value="vpc peering/eni" style="text;html=1;strokeColor=none;fillColor=none;align=center;verticalAlign=middle;whiteSpace=wrap;rounded=0;" vertex="1" parent="1">
          <mxGeometry x="931" y="930" width="189" height="30" as="geometry" />
        </mxCell>
        <mxCell id="bD3E9LJAJzrm63IDOAJ8-130" style="edgeStyle=orthogonalEdgeStyle;rounded=0;orthogonalLoop=1;jettySize=auto;html=1;" edge="1" parent="1" source="bD3E9LJAJzrm63IDOAJ8-95">
          <mxGeometry relative="1" as="geometry">
            <mxPoint x="880" y="1030" as="targetPoint" />
            <Array as="points">
              <mxPoint x="850" y="880" />
              <mxPoint x="850" y="1030" />
            </Array>
          </mxGeometry>
        </mxCell>
        <mxCell id="bD3E9LJAJzrm63IDOAJ8-131" value="共享集群/cu集群管理" style="text;html=1;strokeColor=none;fillColor=none;align=center;verticalAlign=middle;whiteSpace=wrap;rounded=0;" vertex="1" parent="1">
          <mxGeometry x="420" y="950" width="120" height="30" as="geometry" />
        </mxCell>
        <mxCell id="bD3E9LJAJzrm63IDOAJ8-132" value="private link" style="text;html=1;strokeColor=none;fillColor=none;align=center;verticalAlign=middle;whiteSpace=wrap;rounded=0;" vertex="1" parent="1">
          <mxGeometry x="770" y="770" width="80" height="30" as="geometry" />
        </mxCell>
        <mxCell id="bD3E9LJAJzrm63IDOAJ8-133" value="jnsgw" style="text;html=1;strokeColor=none;fillColor=none;align=center;verticalAlign=middle;whiteSpace=wrap;rounded=0;" vertex="1" parent="1">
          <mxGeometry x="790" y="965" width="80" height="30" as="geometry" />
        </mxCell>
        <mxCell id="bD3E9LJAJzrm63IDOAJ8-134" value="private link" style="text;html=1;strokeColor=none;fillColor=none;align=center;verticalAlign=middle;whiteSpace=wrap;rounded=0;" vertex="1" parent="1">
          <mxGeometry x="790" y="1060" width="80" height="30" as="geometry" />
        </mxCell>
        <mxCell id="bD3E9LJAJzrm63IDOAJ8-135" value="dql/dml路由&lt;br&gt;query 改写 dql 到dml持久化结果到cos" style="text;html=1;strokeColor=none;fillColor=none;align=center;verticalAlign=middle;whiteSpace=wrap;rounded=0;" vertex="1" parent="1">
          <mxGeometry x="420" y="990" width="120" height="30" as="geometry" />
        </mxCell>
        <mxCell id="bD3E9LJAJzrm63IDOAJ8-136" value="云梯VPC" style="text;html=1;strokeColor=none;fillColor=none;align=center;verticalAlign=middle;whiteSpace=wrap;rounded=0;" vertex="1" parent="1">
          <mxGeometry x="700" y="720" width="60" height="30" as="geometry" />
        </mxCell>
        <mxCell id="bD3E9LJAJzrm63IDOAJ8-137" value="云梯emr&amp;nbsp;&lt;br&gt;spark&lt;br&gt;thrift server（ddl）" style="rounded=1;whiteSpace=wrap;html=1;align=center;" vertex="1" parent="1">
          <mxGeometry x="510" y="1130" width="150" height="55" as="geometry" />
        </mxCell>
        <mxCell id="bD3E9LJAJzrm63IDOAJ8-138" value="大部分ddl" style="text;html=1;strokeColor=none;fillColor=none;align=center;verticalAlign=middle;whiteSpace=wrap;rounded=0;" vertex="1" parent="1">
          <mxGeometry x="420" y="1050" width="120" height="30" as="geometry" />
        </mxCell>
        <mxCell id="bD3E9LJAJzrm63IDOAJ8-139" value="private link" style="text;html=1;strokeColor=none;fillColor=none;align=center;verticalAlign=middle;whiteSpace=wrap;rounded=0;" vertex="1" parent="1">
          <mxGeometry x="790" y="1180" width="80" height="30" as="geometry" />
        </mxCell>
        <mxCell id="bD3E9LJAJzrm63IDOAJ8-140" value="cos读写&lt;br&gt;12小时过期&lt;br&gt;刷新机制" style="text;html=1;strokeColor=none;fillColor=none;align=center;verticalAlign=middle;whiteSpace=wrap;rounded=0;fontColor=#000000;" vertex="1" parent="1">
          <mxGeometry x="891" y="1260" width="130" height="30" as="geometry" />
        </mxCell>
        <mxCell id="bD3E9LJAJzrm63IDOAJ8-141" value="数据导入导出等业务逻辑封装" style="rounded=1;whiteSpace=wrap;html=1;" vertex="1" parent="1">
          <mxGeometry x="230" y="780" width="90" height="60" as="geometry" />
        </mxCell>
        <mxCell id="bD3E9LJAJzrm63IDOAJ8-142" value="cos provider" style="rounded=1;whiteSpace=wrap;html=1;" vertex="1" parent="1">
          <mxGeometry x="340" y="780" width="80" height="60" as="geometry" />
        </mxCell>
        <mxCell id="bD3E9LJAJzrm63IDOAJ8-143" value="" style="endArrow=classic;html=1;rounded=0;fontColor=#000000;strokeColor=#EA6B66;exitX=0.5;exitY=1;exitDx=0;exitDy=0;" edge="1" parent="1" source="bD3E9LJAJzrm63IDOAJ8-137">
          <mxGeometry width="50" height="50" relative="1" as="geometry">
            <mxPoint x="570" y="1040" as="sourcePoint" />
            <mxPoint x="585" y="1220" as="targetPoint" />
          </mxGeometry>
        </mxCell>
        <mxCell id="bD3E9LJAJzrm63IDOAJ8-144" value="" style="shape=flexArrow;endArrow=classic;startArrow=classic;html=1;rounded=0;fontColor=#000000;strokeColor=#0000FF;strokeWidth=3;entryX=0.5;entryY=1;entryDx=0;entryDy=0;exitX=0.907;exitY=-0.067;exitDx=0;exitDy=0;exitPerimeter=0;" edge="1" parent="1" source="bD3E9LJAJzrm63IDOAJ8-96" target="bD3E9LJAJzrm63IDOAJ8-85">
          <mxGeometry width="100" height="100" relative="1" as="geometry">
            <mxPoint x="980" y="1340" as="sourcePoint" />
            <mxPoint x="1080" y="1240" as="targetPoint" />
          </mxGeometry>
        </mxCell>
        <mxCell id="bD3E9LJAJzrm63IDOAJ8-145" value="托管账号bucket（仓）" style="rounded=0;whiteSpace=wrap;html=1;fontColor=#000000;fillColor=#FFFFFF;" vertex="1" parent="1">
          <mxGeometry x="-30" y="1380" width="410" height="60" as="geometry" />
        </mxCell>
        <mxCell id="bD3E9LJAJzrm63IDOAJ8-146" value="用户bucket（湖）" style="rounded=0;whiteSpace=wrap;html=1;fontColor=#000000;fillColor=#FFFFFF;" vertex="1" parent="1">
          <mxGeometry x="580" y="1380" width="530" height="60" as="geometry" />
        </mxCell>
        <mxCell id="bD3E9LJAJzrm63IDOAJ8-147" value="青鹅&lt;br&gt;运维计费" style="rounded=1;whiteSpace=wrap;html=1;arcSize=18;" vertex="1" parent="1">
          <mxGeometry x="230" y="850" width="60" height="60" as="geometry" />
        </mxCell>
        <mxCell id="bD3E9LJAJzrm63IDOAJ8-148" value="" style="rounded=1;whiteSpace=wrap;html=1;" vertex="1" parent="1">
          <mxGeometry x="1101" y="985" width="170" height="215" as="geometry" />
        </mxCell>
        <mxCell id="bD3E9LJAJzrm63IDOAJ8-149" value="TKE 21x版本" style="text;html=1;strokeColor=none;fillColor=none;align=center;verticalAlign=middle;whiteSpace=wrap;rounded=0;" vertex="1" parent="1">
          <mxGeometry x="1110" y="995" width="80" height="30" as="geometry" />
        </mxCell>
        <mxCell id="bD3E9LJAJzrm63IDOAJ8-150" value="cu 包年包月固定部分TKE，弹性部分虚拟节点EKS" style="rounded=1;whiteSpace=wrap;html=1;align=left;" vertex="1" parent="1">
          <mxGeometry x="1121" y="1090" width="120" height="80" as="geometry" />
        </mxCell>
      </root>
    </mxGraphModel>
  </diagram>
</mxfile>
